
<svg version="1.1" xmlns="http://www.w3.org/2000/svg" xmlns:xlink="http://www.w3.org/1999/xlink" x="0px" y="0px"
	 viewBox="0 0 1080 1080" style="enable-background:new 0 0 1080 1080;" xml:space="preserve">
<style type="text/css">
	.bg {
        fill:#1F4393;
    }
    .logo {
        animation: logo-bob 2s cubic-bezier(0.35, 0, 0.65, 1) alternate infinite;
    }
	.blob {
        fill:#F16C5F;
    }
    .fish {
        animation: rotate 6s cubic-bezier(0.75, 0, 0.25, 1) alternate infinite;
        transform-origin: 540px 540px;
    }
	.eye, .head {
        fill:#EEE5DB;
    }
    .eye {
      transform: scaleX(0.5);
      transform-origin: 541.199px 481.0091px;
      animation: blink 6s ease-in-out alternate infinite;
    }
    @keyframes rotate {
      0%,
      65% {
        transform: rotate(0deg);
      }
      75%,
      100% {
        transform: rotate(-90deg);
      }
    }
    @keyframes blink {
      0%,
      80%,
      85%,
      95%,
      99%,
      100% {
        transform: scaleX(1);
      }

      83%,
      97% {
        transform: scaleX(0);
      }
    }
    @keyframes logo-bob {
      0% {
        transform: translateY(80px);
      }

      100% {
        transform: translateY(-80px);
      }
    }
</style>
<rect class="bg" width="1080" height="1080"/>
<g class="logo">
    <path class="blob" d="M548.5,700C460.6,700,380,628.4,380,540s61.9-160,149.8-160s184.5,32.8,168.5,150.6
            C686.3,618.1,636.4,700,548.5,700z"/>
    <g class="fish">
        <path class="head" d="M631,467.5c-1.7,7.2-3.5,13.8-4.9,20.5c-9.5,43.7-17.6,81.1-29.7,121.5c-1.2,4.1-1.3,5.9-6.9,6.5
                c-2.3,0.2-12.4,0-17,0c-4.1,0-6.1,0-8.3-5.1c0,0-15.8-29.1-21.7-40.4c-0.4-0.7-1-2-3-2.1c-0.9-0.1-1.9,0.2-3,2.2l-20.2,39.9
                c-2,3.8-2.6,4.1-11.9,4.1c-5.9,0-6,0.2-11.2,0.2c-3.2,0-8.7-0.1-9.7-4.1c-1.4-5.5-2.8-11-3.6-16.7c-0.3-1.8-12.8-56.1-14.6-63
                c-2.7-10.8-9.3-37-9.8-39.3c-1.3-6.2-2.6-12.4-4-18.5c-0.6-2.4-1.3-4.2-2.2-8.3c-0.1-0.5,0.2-1,0.7-1l32.8,0
                c0.3,0,0.5,0.2,0.6,0.5c4.6,22.8,11.8,55.3,17.2,81.9c0.3,1.3,1.2,7.4,4.4,7.5c2.3,0.1,3.5-2.1,4.5-3.9c3-5.1,15.3-27,18.3-31.9
                c1.4-2.3,3.8-3.8,5.3-3.8c11.6,0,16.1-0.7,18.6,2.7c1.9,2.6,12.1,20.7,20,34.9c0,0,2,4.2,5,4.2c1.9,0,2.5-1.6,3.2-3.6
                c2.8-7.7,7.4-29,8.4-38.7c0.4-4.2,7-42.2,9.5-48.2c1-2.2,31.3-0.6,31.3-0.6C630.3,465,631.3,466.2,631,467.5z"/>
        <path class="eye" d="M557.3,479.9c0,8.6-6.4,17.2-15,17.2s-17.2-6.4-17.2-15c0-8.6,6.4-17.2,15-17.2
                C548.7,464.9,557.3,471.4,557.3,479.9z"/>
    </g>
</g>
</svg>
